<svg fill="#fff" id="Layer_1" enable-background="new 0 0 496.142 496.142" height="512" viewBox="0 0 496.142 496.142" width="512" xmlns="http://www.w3.org/2000/svg"><path d="m496 368.571v47.5c0 26.467-21.532 48-48 48h-400c-26.468 0-48-21.533-48-48v-336c0-26.467 21.532-48 48-48h400c26.468 0 48 21.533 48 48v104c0 8.836-7.163 16-16 16s-16-7.164-16-16v-104c0-8.822-7.178-16-16-16h-400c-8.822 0-16 7.178-16 16v48h400c8.837 0 16 7.164 16 16s-7.163 16-16 16h-400v256c0 8.822 7.178 16 16 16h400c8.822 0 16-7.178 16-16v-47.5c0-8.836 7.163-16 16-16s16 7.164 16 16zm-436.65-287.8c-8.86 2.718-13.179 12.053-10.649 19.95 2.542 8.341 11.333 13.233 19.949 10.65 7.903-2.416 12.609-10.317 11.04-18.43-2.078-9.693-11.549-14.806-20.34-12.17zm39.35 6.42c-4.891 7.246-2.941 17.332 4.42 22.18 11.588 7.822 27.307-2.276 24.569-16.43-3.079-14.366-21.403-17.269-28.989-5.75zm67.42-5.89c-10.507-4.378-22.12 3.401-22.12 14.77 0 8.834 7.201 16 16 16 17.035 0 22.605-23.904 6.12-30.77zm163.006 294.77c2.451-19.463 12.848-68.854 56.317-107.023 36.422-31.981 85.105-42.818 97.276-40.739 7.394 1.268 12.869 7.535 13.259 14.927 3.794 72.61-58.924 126.986-130.102 113.796-2.918 9.586-4.33 17.699-5.003 23.039-1.104 8.766-9.106 14.978-17.874 13.875-8.767-1.105-14.978-9.107-13.873-17.875zm49.944-49.461c37.7 3.575 75.507-18.879 83.572-63.023-34.638 9.054-64.744 30.57-83.572 63.023zm-323.07 9.461v-136c0-8.836 7.163-16 16-16h112c8.837 0 16 7.164 16 16v136c0 8.836-7.163 16-16 16h-112c-8.837 0-16-7.163-16-16zm32-16h80v-104h-80zm152-92h126c8.837 0 16-7.164 16-16s-7.163-16-16-16h-126c-8.837 0-16 7.164-16 16s7.163 16 16 16zm112 40c0-8.836-7.163-16-16-16h-96c-8.837 0-16 7.164-16 16s7.163 16 16 16h96c8.837 0 16-7.163 16-16zm-40 56c0-8.836-7.163-16-16-16h-56c-8.837 0-16 7.164-16 16s7.163 16 16 16h56c8.837 0 16-7.163 16-16zm-240 84h163c8.837 0 16-7.164 16-16s-7.163-16-16-16h-163c-8.837 0-16 7.164-16 16s7.163 16 16 16z"/></svg>
